<svg id="Layer_1" data-name="Layer 1" xmlns="http://www.w3.org/2000/svg" viewBox="0 0 1920 647.84"><defs><style>.cls-1{fill:#686762;}</style></defs><path class="cls-1" d="M1920,647.82q-240.42,0-480.83,0-360.42,0-720.83-.07-139.87,0-279.77-.22c-22.38,0-44.76-.23-67.15-.41a52.09,52.09,0,0,1-6-.8c4.48-4.72,2.81-9,1.84-13.49-5.15-23.78-17.72-44.28-28.92-65.36a28.15,28.15,0,0,0-5.66-6.87c-3.24-3.06-6.82-3.52-10.88-1-13.35,8.29-28.51,12.13-43.23,17-3.35,1.11-7.31.57-11,.47-4.25-.12-8.5-.52-12.74-1-.92-.1-2.38-.74-2.51-1.36a3.18,3.18,0,0,1,1.12-2.82c12.14-5.5,24.14-11.4,36.61-16.06,10-3.72,20.71-3.67,31.3-2.49,6,.67,9.38-2.51,8.46-8.45-1.05-6.89-2.41-13.74-3.76-20.57-1-4.88,0-6.81,4.76-8.79,7.59-3.16,10.76-7.79,10.67-16a50.39,50.39,0,0,0-5.5-21.74c-2.15-4.41-4.19-9.3-4.49-14.09-1-16.21-5.23-31.69-9.36-47.23-4-15.13-8-30.24-8.16-46.08-.12-14.65-.59-29.29-.84-43.94-.1-5.95.12-11.92-.12-17.87a11.12,11.12,0,0,0-1.88-5.52c-6.47-9.37-10.59-19.83-13.36-30.7-1.15-4.48-.4-9.59.3-14.3.24-1.63,2.79-3.84,4.51-4.06s4.43,1.27,5.42,2.83c8.64,13.69,10.85,29,9.65,44.72-1.15,15.07,4.34,20,16.71,24.07,5,1.64,9.71,4.6,14.78,5.24a34,34,0,0,0,15.27-1.66,161.21,161.21,0,0,0,44.79-24.17,37.82,37.82,0,0,1,7.33-4.17c7.73-3.56,10.76-11.32,15.54-17.42a101.85,101.85,0,0,0,11.74-18.44c1.37-2.89.56-7.36-.49-10.73-2.05-6.64-5.05-13-7.45-19.51-.62-1.68-.46-3.65-.66-5.49,2,.58,4.53.6,6.05,1.83a36.64,36.64,0,0,1,12.37,18.54c8-6.62,16.55-11.88,15.31-24-.79-7.8-8.45-17-16.3-17.7a6.64,6.64,0,0,0-4.34,1.91c-3.74,3.48-7,7.46-10.92,10.76-3.1,2.64-6.92,4.42-10.19,6.89a53.84,53.84,0,0,0-7.76,7c-6.84,7.62-14.59,13.54-24.48,17-4.73,1.66-8.58,5.78-12.86,8.74C376,264.63,370,269.17,363.51,273c-4.44,2.65-6.16,1.77-9.16-2.48a25.38,25.38,0,0,0-13.63-9.72,58.12,58.12,0,0,1-13.14-5.88c-2.13-1.33-4.28-4.32-4.49-6.74-.89-10-7.91-15.82-14.35-21.92-4.37-4.14-8.31-8.17-11-13.8-2.47-5.1-7-9.21-10.52-13.8-1.7-2.2-3.65-4.33-4.81-6.81-2.15-4.56-3.69-5.5-8.69-4.17-3.56,1-7.12,1.85-11.23,2.91a19.35,19.35,0,0,1,.92,4.13c.1,6.91.16,13.82-.06,20.72a4,4,0,0,1-2.48,2.93c-.94.16-2.51-1.07-3.2-2.1-2-3.07-3.73-6.39-5.69-9.52-3.41-5.47-7.15-5.6-11.05-.6-5.57,7.12-11.22,14.18-17.32,21.87,3.39,5.29,7.81,11.26,11.24,17.75,4.51,8.55,8.36,17.45,12.28,26.3s7.73,17.43,11,26.36a47.61,47.61,0,0,1,3.39,15.23c.14,7.24,2.62,13.59,5.19,20,4.69,11.8,9.05,23.58,8.92,36.66,0,4.48,2.28,9,3.65,13.45s2.71,9,4.53,13.27c.87,2.07,2.79,3.71,4.29,5.49,5.08,6.05,11,12.28,9.69,20.65-2.45,15.66-1.11,31.23-.55,46.83A10.58,10.58,0,0,0,300,476.6c6.81,6.89,8.54,15.46,9.28,24.59.5,6.22,2,12.38,2.29,18.6.41,8.54-.62,8.48-8.36,11.94-15.77,7-32.6,10.41-49.17,14.22-22.75,5.24-45.93,8.79-69.51,5-6.35-1-12.83-1.31-19.24-1.93l-.68,1c4.49,3.47,8.92,7,13.46,10.37,3.3,2.45,6.9,4.52,10.07,7.11,3.81,3.13,4,13.16.2,18.33-4.48,6.05-9.3,11.86-14.13,17.64-3.44,4.11-6,8.44-4.82,14.49,1.47-1.6,3.23-3,4.37-4.82,6.46-10.18,12.88-20.39,19-30.76,1.23-2.07,1.4-4.86,1.69-7.36s1.5-3.18,3.91-3.37c14.78-1.19,28.89,1.66,42.73,6.52,2.37.83,5.06.71,7.51,1.37,2.8.77,5.8,1.45,8.16,3,3.57,2.35,1.57,9.15-3.42,10.74-3.72,1.18-7.8,1.44-11.75,1.72s-7.85.06-12.25.06c.7,3,1.26,4.88,1.57,6.8,2,12.28-4.67,21-13.37,27.6-12,9.19-25.74,9.29-39.76,4.18-5.1-1.86-9.92-3.69-12-9.62-5.05,1.77-8.09-.36-11.37-4.14-3.75-4.33-8.76-7.62-13.41-11.11-2.62-2-4.8-1.74-5.1,2.25-.55,7.52-1.2,15-1.67,22.55a9,9,0,0,0,.86,3.67c2,5,.56,7.16-5,7.18-12.12,0-24.24,0-36.37,0H0v-4.27a27.65,27.65,0,0,0,4.48.71q60.52.06,121.06,0c1.53,0,3.06-.14,4-.19,1.05-12.53,2-24.62,3.11-36.7a5.5,5.5,0,0,1,1.66-3.54c.52-.41,2.33.36,3.26,1,5.57,3.88,11.1,7.82,16.54,11.89,1.67,1.25,2.92,3.07,4.5,4.46a30.42,30.42,0,0,0,3.63,2.46,20,20,0,0,0,2.3-3.78c.73-2.12.54-4.73,1.7-6.51,4-6.13,8.4-12,12.73-18,1.59-2.18,3.49-4.13,5.15-6.25,5.36-6.88,4.63-13.33-2.65-18.77-5.23-3.91-10.9-7.22-16.41-10.74a11.3,11.3,0,0,0-2.74-.74c-1.81,11.17-9.52,18.7-16,26.82a54.25,54.25,0,0,1-12.12,10.55c-5.38,3.62-11.36,1.52-15.8-4.53a19.21,19.21,0,0,0-4.13-4.12c-11.89-8.51-23.85-16.93-35.78-25.39C58.7,544.79,44.6,526,33.35,504.79c-3.33-6.27-6.78-12.47-9.82-18.87a18.31,18.31,0,0,1-2-8.18c.66-16.46,1.29-32.93,2.64-49.34a265.57,265.57,0,0,1,4.72-33.25c2.4-11.37,6.58-22.35,9.1-33.7,3.23-14.57,9.14-28.74,6.76-44.31a20.66,20.66,0,0,1,2-12.41c3.23-5.72,4-11.64,3.64-17.68-.76-12.71,4.14-23,12.5-32,9.44-10.05,19.33-19.66,28.77-29.7,5-5.36,9.61-11.17,14.3-16.86,5.57-6.75,11.76-12.76,19.78-16.54a7.62,7.62,0,0,0,4.61-6c2.85-13.16,9.13-24.66,17.73-35,2.45-2.94,5.24-4.68,9.22-4.13.73.11,1.55-.36,3-.75-1.6-2.9-2.7-5.67-4.46-7.93-7.87-10.08-12.6-21.71-15.74-33.82-1.94-7.47-1.55-15.51-2.62-23.24-1.4-10,0-19.91,2.11-29.59A38.57,38.57,0,0,1,146,38.2c6.5-9.3,13.33-18.4,22.52-25.42A61.84,61.84,0,0,1,197,.92,66.94,66.94,0,0,1,233,4.73c5.22,2.12,11.27,2.35,16.29,4.79a109.91,109.91,0,0,1,17.77,11.4A100,100,0,0,1,280.26,33c1.43,1.56,2.45,4.94,1.76,6.77-3.24,8.47-.6,15.67,3.38,23s7.54,15,2.41,23.62c-2.64,4.42.67,15.83,4.66,19.26a68.29,68.29,0,0,1,9.4,9.76c3.36,4.34,2.22,8.34-3.11,11.13-3.34,1.76-7.08,2.77-10.64,4.12a30.59,30.59,0,0,1,0,17.73c-.3,1,.57,2.31.77,3.5.63,3.85,2.07,7.82,1.58,11.52-.67,5-7.22,8.9-13.06,9.46-7.25.7-14.41,1.5-21.57-.78-3.34-1.06-6,1-7.7,3.42-6.81,10-13.41,20-19.9,30.21-1,1.59-1.07,3.81-1.56,5.74l1.5.92c2.1-2.25,4.27-4.45,6.28-6.77,1-1.17,1.71-2.63,2.65-3.87,4.81-6.38,13.62-6.08,18.08.57.8,1.2,1.69,2.34,2.54,3.51l1.48-.3c0-2,.49-4.13-.09-5.93-1.6-4.93-3.74-9.69-5.47-14.58-.45-1.27-.21-2.79-.29-4.19,1.46-.09,3.54-.83,4.28-.14,4.34,4.06,8.86,3.34,13.92,1.7,8.34-2.7,12.17-.7,15.94,7.22a15.64,15.64,0,0,0,3.37,4.3c5.57,5.4,10.5,11.17,13.19,18.64a15.71,15.71,0,0,0,3.42,4.81c4.51,4.93,9.57,9.42,13.54,14.74a32.66,32.66,0,0,1,5.61,12.57c1,4.64,3.2,7.43,7.3,9.1,3,1.22,6.09,2.39,9.21,3.38a24.8,24.8,0,0,1,13.22,9.6c1.73,2.49,3.71,3.07,6.11,1.31,6.52-4.78,12.81-9.9,19.5-14.43,4-2.71,8.58-4.55,12.88-6.82,1.61-.85,3.22-1.72,4.75-2.72,6.54-4.3,12.95-8.71,17.48-15.35a10,10,0,0,1,4.21-3.48c8.37-3.48,14.7-9.52,21-15.75,3.28-3.24,7.31-5.73,11.05-8.59.55-2.48.81-5.77,2-8.68a207.56,207.56,0,0,1,33.82-56,101.69,101.69,0,0,1,14.19-14c2.46-1.94,6.54-2.58,9.85-2.5,3.88.11,5.33,5.68,2.73,10.62-2.25,4.26-5.09,8.21-7.66,12.31-2.83,4.51-2.69,4.91,2.35,5.95,2.58.53,4.49,1.54,4.83,4.53.32,2.83.87,5.67,4.15,6.78a1.44,1.44,0,0,1,.89.88c.65,5.83,5.18,10.89,3.4,17.23a7.7,7.7,0,0,0-.17,3.75c1.79,7.15-1.17,12.36-6.4,16.88-7.31,6.31-14.62,12.64-21.66,19.23A51.41,51.41,0,0,1,476,229.3a3.64,3.64,0,0,0-2.13,2.53c-.28,6-3,10.39-7.74,13.91a49,49,0,0,0-6.71,6.57c-2.62,2.87-5.24,5.38-10.12,2.23.21,2.57.26,4.33.52,6,.74,5-.54,9.11-4.67,12.48-1.89,1.54-2.94,4.1-4.39,6.18-2.2,3.14-4.33,6.33-6.64,9.39C418.7,309,396.6,319.71,374.2,330c-7,3.2-13.94,6.71-22,6.07a25.69,25.69,0,0,1-6-1.55c-3.62-1.22-7.22-2.49-10.77-3.9-6-2.39-12-4.91-18.29-7.5a4.21,4.21,0,0,0-.62,1.69c0,12.81-.23,25.64.24,38.44.67,18.11,4.72,35.68,9.26,53.18,3.48,13.45,7.33,27,8.49,40.76.94,11.29,7.42,20.23,9.32,30.74a63.74,63.74,0,0,1,.74,18.89c-.75,5.94-4.63,10.48-10.85,12.46-3.19,1-4.82,3-3.85,6.86,1.36,5.35,2.26,10.83,3.23,16.28.42,2.37,1.34,5.1.59,7.14-2.12,5.8,2,8.2,4.84,11.9a131.69,131.69,0,0,1,11.38,18.46c5.35,10.2,10.92,20.38,15,31.09,3.64,9.47,5.35,19.67,8.12,29.49.34,1.2,1.89,2.29,3.13,2.92.91.47,2.24.11,3.38.11q127.7-.12,255.39-.27c21.38,0,42.76-.3,64.15-.3q607.42,0,1214.86-.08a36.69,36.69,0,0,0,6-1ZM138.22,205c-2.67,4.61-4.32,8.45-6.83,11.61-9.09,11.48-18.42,22.78-27.78,34-2,2.34-1.76,3.7.25,6,7,8.15,13.83,16.43,20.21,25,3.87,5.23,8.15,10.81,9.78,16.89a116.77,116.77,0,0,1,3.6,27.77c.46,22.52-5.81,43.55-16.07,63.45-2.73,5.3-6.41,9.53-12.25,11.92-5.61,2.29-10.6,10.42-9.53,14.92,1.65,7,2.94,13.89.89,21a2.66,2.66,0,0,0,1,2.37,2.68,2.68,0,0,0,2.46-.85c1.57-2.63,3.8-5.32,4.12-8.17a74.25,74.25,0,0,1,6.82-25c3.37-6.82,9.83-8,15.29-2.65a26.89,26.89,0,0,1,8.34,19.06c.14,6.66-.32,13.33-.06,20,.4,10.27.91,20.56,1.95,30.79a54.84,54.84,0,0,0,3.64,13.8c1.61,4.22,5.22,7.89,6,12.16a232.28,232.28,0,0,1,3.33,29.65c.41,7.71,5.21,15.19,12.93,16.18,12.48,1.61,25.06,2.53,37.61,3.55,14.05,1.13,27.56-2.85,41.26-4.88,7.25-1.08,14.22-4.06,21.47-5.2,12.79-2,24.59-6.86,36.48-11.52,5.14-2,5.73-3.48,4.8-8.89-.84-4.8-2-9.57-2.37-14.41-.72-9.52-3.27-18.1-10-25.26-1.59-1.68-2.4-4.51-2.69-6.92a125.56,125.56,0,0,1-.87-15.63c.07-9.1-1.49-18.12.66-27.36,2-8.74-2.15-15.94-9-21.69a16.35,16.35,0,0,1-4.22-6.14c-1.77-4.31-3-8.84-4.53-13.27-1.06-3.14-2.66-6.17-3.18-9.39-1-6.09-.76-12.43-2.16-18.4-1.77-7.49-4.69-14.72-7.06-22.08-2.25-7-6.14-13.3-5.92-21.17a38.85,38.85,0,0,0-4.7-19c-3.32-6.4-5.64-13.3-8.78-19.8-5.68-11.73-11.83-23.24-17.42-35-4.24-8.9-11.38-15.3-18.19-21.94-2.67-2.6-6.32-4.35-9.8-5.89a5.62,5.62,0,0,0-5,1,96.59,96.59,0,0,0-9.71,11.1c-2.36,3.18-4,6.91-6.17,10.21-1.47,2.19-3.32,5.18-6.41,3.66-3.46-1.71-7.08-3.93-9.45-6.87-5.42-6.75-10-14.17-15.17-21.11C143.69,210,140.93,207.73,138.22,205ZM133,431.9l.38,0c.12-1.42.18-2.84.38-4.25.94-6.88-1.28-12.94-5-18.56-3.5-5.34-7.56-5.28-10,.57a82.43,82.43,0,0,0-5.35,17.43c-1.14,6.45-2.91,12.37-6.74,17.74-3,4.17-5.66,8.55-8.25,13s-1.81,7.16,2.57,10a9.37,9.37,0,0,1,3.17,2.76c4.79,8.38,10.21,16.52,13.91,25.37a108.13,108.13,0,0,0,20.18,31.39,27,27,0,0,1,3.83,5.1c.57,1,.32,2.53.44,3.81-1.56-.14-3.44.23-4.61-.52-2.37-1.52-4.31-3.68-6.49-5.5-15.59-13-30.11-26.83-37.49-46.62-2-5.28-6.93-9-12.59-10.86a5.75,5.75,0,0,0-4,.54,53.22,53.22,0,0,0-9.06,5.55c-5,4.05-10.43,3.25-15.87,2.18-3.59-.71-6.53-3-6.18-7,.33-3.89,3.35-5.77,7-6.48a15,15,0,0,1,3.84,0c12.23.76,24.49,1.62,30.19-12.9.29-.76,1.12-1.29,1.58-2,5.89-9.17,10.53-18.78,7.48-30-2.79-10.33,1.84-20.25,11.6-25,3.15-1.52,6.55-4,8.2-6.95,13.4-24,19.55-49,14.86-77-2.21-13.14-6.68-24-15.07-33.73-3.3-3.84-6.79-7.53-10.08-11.39-1.74-2-3.14-4.36-4.87-6.41-1.88-2.24-5.41-4.21-5.54-6.46s3.06-4.62,4.89-6.88c9-11.17,18.25-22.17,27-33.55A36.94,36.94,0,0,0,133,203c.57-2-1-4.81-2.26-6.87-.26-.42-3.81.38-5.1,1.49a204.22,204.22,0,0,0-15.82,14.73c-4.82,5.16-8.69,11.19-13.48,16.38-9.16,9.91-18.88,19.31-28,29.26-7.67,8.37-12.9,17.72-12,29.94.41,5.43-1.64,11.08-2.86,16.57-.69,3.14-2.37,6.09-2.84,9.23s0,6.19.22,9.28c.92,13.12-3.33,25.55-7,37.55-7,22.77-14,45.39-15.83,69.27-1.11,14.73-2.18,29.48-2.71,44.23-.13,3.59,1.58,7.42,3.1,10.86,1.88,4.28,4.75,8.12,6.64,12.39a145,145,0,0,0,45.42,57.61q12.19,9.33,24.57,18.44c6.84,5.06,13.67,10.18,20.77,14.86,1.5,1,4.82,1,6.19,0,4.41-3.26,8.92-6.73,12.25-11,5.85-7.52,12.88-14.36,14.51-24.68.66-4.16-.18-6.1-3.34-8.19-4.62-3.07-7.29-7.2-7.22-13.18a190,190,0,0,0-1.06-23.38,29.68,29.68,0,0,0-4-11.95c-5.49-8.87-8.79-18-7.71-28.64.44-4.33-.5-8.79-.82-13.18Zm71.18-286.22c-1.09,1.56-3,4-4.59,6.61-5.34,8.52-14.5,6.24-20.7,1.41-2.65-2.07-4.72-4.85-7.24-7.1-1-.93-2.57-1.32-3.88-2-.39,1.42-1.31,2.93-1.1,4.25,1.12,6.85,2,13.81,4,20.41A59.8,59.8,0,0,0,178,184.48c2.34,3.59,6.16,6.19,9.08,9.45,1,1.1,1.23,2.87,1.82,4.33-1.7.09-3.62.74-5,.16-3.4-1.41-6.55-3.39-9.81-5.14-8.54-4.6-15.55-10.61-17.23-20.74-.81-4.88-.66-9.91-1.11-14.85a16.73,16.73,0,0,0-1.26-3.75c-1.18.65-2.63,1.05-3.5,2-8.25,8.82-13.09,19.48-16.3,30.95a4.36,4.36,0,0,0,.19,3.24c2.75,3.92,5.62,7.76,8.67,11.46,2.34,2.84,5.21,5.26,7.45,8.17,5.28,6.85,10.24,13.95,15.5,20.82,3,3.89,4.64,3.37,7.31-.52a218.58,218.58,0,0,1,14.14-18.51c3.71-4.31,8.61-5,13.52-2.13,4.62,2.69,8.78,6.15,13.18,9.21a34,34,0,0,0,3.53,1.88,28.26,28.26,0,0,0,1.81-3.66c2-6,3.24-12.37,5.92-18.05a128.62,128.62,0,0,1,11-18.15,105.59,105.59,0,0,1,9.9-11.68,7.17,7.17,0,0,1,7.65-2.29,49.74,49.74,0,0,0,23.18.34c6.77-1.45,10.55-6.86,6.69-11.36-4.63-5.39-1.24-11-2-16.37-.23-1.69.22-3.55-.33-5.09-1.67-4.66.43-8.43,5.26-9.49a28.73,28.73,0,0,0,7.94-2.89c.93-.53,1.72-3.27,1.18-4.06a31.53,31.53,0,0,0-6.52-7.2c-5.92-4.52-10.76-19.46-7-26,4.1-7.11.95-12.57-1.77-18.74a95.4,95.4,0,0,1-5.39-16.78c-.65-2.8-1.1-3.75-4.25-3.45-6.46.6-13,.37-19.47.91-1.66.14-4.61,2-4.54,2.88.7,8.45,2.14,16.81,7.22,24,1.53,2.16,1.8,3.76-.4,5.85C246.61,86.5,241.44,94.81,245,106c.86,2.73-.12,4.21-2.6,4.74-3.61.77-7.26,1.38-10.92,1.83-3.36.41-5.75-.1-5.46-4.67.3-4.76-3.79-6.87-7.35-8.47-3.25-1.47-6.36-.13-8.71,2.71-3.9,4.7-4.3,10.36-4.63,16.06-.62,10.83,2.52,16,12.45,20.21,2.94,1.23,4.16,3.36,4.76,7.3Zm1.12-8.12c-6.11-12.66-6.35-13-4.24-26.52.93-5.91,2.54-12,8.48-15.07,8-4.17,17.72.42,20.14,9.48.82,3,2.48,3.17,4.71,2.47,1.87-.59,5.49.7,4.89-3-1.66-10.53,2.95-18.76,8.92-26.66a4.2,4.2,0,0,0,.73-3.29c-2.6-8-5.35-15.79-5.76-24.32-.33-6.75.4-8.13,7.12-8.56,1.39-.09,2.82.41,4.22.36,5.36-.17,10.7-.46,16.05-.7l.34-1.55c-1.73-1.34-3.5-3.85-5.19-3.81-5,.13-10.59.12-15,2.2-16.35,7.77-33,11.08-50.94,7-2.71-.61-5.65-.16-8.45-.46-7-.76-14.31.58-20.83-3.44-.71-.44-3.14.32-3.47,1.09-3.29,7.56-6.88,15.07-9.22,22.94-1.79,6.05-1.45,12.7-2.87,18.89-3.53,15.46,1.78,29.35,7.66,42.89,4.28,9.87,12.58,16.93,20.89,23.63a7.6,7.6,0,0,0,2.24,1.17c6.3,2.22,13.46-2.71,14.32-10.34C200.43,138.6,201.3,136.85,205.29,137.56ZM267.56,31.38l.67-1.68c-5.57-5.86-11.27-11.85-19-14.71-9.31-3.43-18.84-6.78-28.56-8.4-8.25-1.38-17.23-1.67-25.34.07-15.77,3.38-28,12.74-37.94,25.68-7.95,10.32-14.23,21.12-14.43,34.14-.29,18.73-.41,37.64,8.6,55,.95,1.83,2.63,3.28,4,4.9-.1-2.17.36-4.56-.42-6.46-3.41-8.38-5.95-16.91-5.35-26.06a159.24,159.24,0,0,1,1.75-17.32,190.46,190.46,0,0,1,4.73-20.58c1.6-5.55,4.2-10.81,6-16.32s4.9-6.56,10.13-3.89a36,36,0,0,0,11,3.52c7,1,14.1,1,21.07,2,11,1.63,21.69,1.49,32.24-2.53a203.86,203.86,0,0,1,20.07-6.61C260.17,31.21,263.94,31.58,267.56,31.38ZM503.29,152.73c-6.07.11-7-1.35-4.1-6.59,1-1.86,2.33-3.57,3.52-5.34,2.7-4,5.51-8,8.05-12.08.65-1,.48-2.58.68-3.9-1.42.22-3.1,0-4.22.75a32.73,32.73,0,0,0-5.51,4.69c-18.21,18.29-31.47,39.9-42.06,63.24-.69,1.52-.16,4.25.82,5.76,3.85,6,8.19,11.59,12.21,17.45,4.65,6.76,4.86,6.87,11.9,2.61a7.06,7.06,0,0,0,1.06-.72c10.44-9,21-17.92,31.26-27.09,2.63-2.35,3.74-5.55,1.87-9.28-.61-1.21-.37-3.06,0-4.5,1.19-4.91-3.09-8.9-2.23-13.76.05-.29-1.74-.73-2.41-1.37-1.11-1-2.62-2.21-2.87-3.53C510.1,152.94,509.86,152.62,503.29,152.73ZM235.18,591.89c4.77-.39,9.41-.32,13.81-1.3,2.23-.5,4-2.9,6-4.44-2-1.13-3.88-2.73-6-3.3-6.28-1.67-12.82-2.49-19-4.47A68.5,68.5,0,0,0,202.65,575c-1.24.11-3.15,1.13-3.46,2.12-5,16.32-15,29.56-26.12,42.07-3.32,3.72-2.82,6.83,2,8.65,8.38,3.16,16.78,5.61,26.1,4.16,10.24-1.59,23.15-12.12,25.64-22.07,1.68-6.72.12-12-4.07-14.53-1-.61-1.62-1.88-2.41-2.85,1.33-.48,2.66-1.38,4-1.37C228,591.24,231.69,591.64,235.18,591.89Zm82.48-33.74c-13.82-5.19-48.13,6-54.25,14.29a25,25,0,0,0,16.32.21c6.6-2.18,13.28-4.19,19.77-6.66C305.66,563.64,311.61,560.79,317.66,558.15ZM118.79,512.28c.57-2.06.89-2.54.76-2.83-3.48-7.75-6.65-15.67-10.63-23.15-2.7-5.07-5.77-10.52-10.12-14s-6.83-6.47-6.48-11.84c0-.61-.36-1.26-1-3.18-2,2.85-3.33,5-4.94,7C84,467.2,85,468.69,87.74,471A56.58,56.58,0,0,1,98.3,482.85c4,6,6.73,12.74,10.66,18.75C111.4,505.33,115,508.28,118.79,512.28Zm184.3-255.07c-.91,1.53-1.85,2.4-1.91,3.32-.23,3.64-1.1,7.57-.07,10.88,2.64,8.5,6.13,16.75,9.41,25,.44,1.13,1.56,2,2.37,3l1.18-.59C314.07,284.36,312.76,270.19,303.09,257.21ZM170.84,184.32c-3.05-10.73-6.07-21.38-9.22-32.52C157.91,161.13,160.14,180.09,170.84,184.32ZM67.3,472.25c-5.23,0-9.52-.09-13.79.09-.64,0-1.7,1.33-1.69,2s1,1.66,1.74,2.06C57.75,478.62,63.13,477.25,67.3,472.25Zm52.37,42,1.58-.44a22.23,22.23,0,0,0-1.12-2.3,4.09,4.09,0,0,0-1.27.49A20.86,20.86,0,0,0,119.67,514.23Z" transform="translate(0)"/></svg>