<svg id="Layer_1" data-name="Layer 1" xmlns="http://www.w3.org/2000/svg" viewBox="0 0 1920.36 662.66"><defs><style>.cls-1{fill:#6f6e69;}</style></defs><path class="cls-1" d="M1625.18,12h0s17,3.23,30.14,14.67c4.58,4,10.2,6.74,14.89,10.61C1683,47.85,1689.58,61.9,1692,78.1c1.93,13.09.23,26-2.14,38.8a10.51,10.51,0,0,0,1.16,6.42c5.86,10.7,5.59,21.8,1.43,32.65-3,7.69-10.76,10.78-17.58,14.33-2.47,1.29-3.35,2.19-3.71,5.29-.76,6.61-1.92,13.51-4.65,19.5-3.68,8-3.36,15.6-1.7,23.9,1.53,7.66,7.08,12.64,10.45,19,4.42,8.35,9.41,16.45,13.14,25.1,1.69,3.93,2.38,6.45,7.52,6.95,4.59.45,9.11,3.13,10.52,8.68a5.64,5.64,0,0,0,2.67,3c3.2,1.72,6.53,3.2,9.88,4.63s7,2.82,10.49,4.18c.81.31,1.86.24,2.5.74,10,7.57,23.49,9.13,32,19.34,1.94,2.34,5.77,3.39,8.93,4.38a33.45,33.45,0,0,1,20.67,17c3.62,6.7,8.88,12.78,14.4,18.12,7.42,7.19,7.78,16.49,8.62,25.38.65,6.87,2.31,12.11,7.61,16.81s9.35,10.4,13.89,15.73a4.88,4.88,0,0,1,1.27,2.74c.2,9.13,5.47,16.45,10.77,22.55,4.77,5.49,8.89,10.57,11.38,17.49,1.56,4.35,5.38,7.87,8.07,11.84,4.93,7.29,6.85,15.55,6.78,24.15a223.32,223.32,0,0,1-1.53,26.25c-.53,4.15-3,8.09-4.84,12-1,2.1-2.67,3.87-3.67,6-6.09,12.73-17.71,15.6-29.75,14.42-8.89-.88-17.48-5.16-26.07-8.3-1.48-.55-2.27-3-3.38-4.55,1.68-.6,3.32-1.57,5-1.74,5.38-.52,10.78-.67,16.17-1.07,8.71-.66,13.93-6.08,17.78-13.27,3.23-6,7.3-11.81,9.42-18.23,3.08-9.36,5.69-19.3,2.8-29.13-1.32-4.52-5.22-8.28-7.93-12.39l-1.3.28a23.13,23.13,0,0,0-.73,4.52c.47,13,.68,25.94-3.12,38.58-3.5,11.64-10.37,20.62-22.14,24.13-6.84,2-14.22.5-21-2.42-18.39-7.94-27.82-23.24-32.87-41.5-4.3-15.5-11.78-29.22-20.89-42.22a13,13,0,0,0-2.9-2.27c-.58,1.08-1.52,2.11-1.68,3.25-2.11,15.26-1.25,30.42.33,45.74,1.82,17.69.74,35.4-7.11,52-5.51,11.62-11,23.23-16.42,34.91-4.53,9.86-3.7,19.64,1,29.22a118.53,118.53,0,0,0,5.54,11c7.57,12.06,9,25.19,6.9,38.84-.56,3.67-2.48,7.15-3.87,10.68-2.4,6.07-2.17,6.48,4.21,6.48h181.58c2.55,0,5.35-.34,3.79,4.22h-28l-164.43-.07c-1,0-2.06.07-3.08,0-2.86-.29-3.48-1.32-1.78-4,11.12-17.43,11-35.15,1-53-6.09-10.8-12.64-21.88-9.93-34.65,2.1-9.87,6.24-19.46,10.5-28.71,5.63-12.21,13.1-23.76,14.6-37.41a146.52,146.52,0,0,0,.32-32.31c-1.21-10.85-3.52-21.86-1.16-33.1,1.41-6.77,1.13-13.92,1.27-20.91s-4-10.92-10.67-10.66c-15.21.59-30.4,1.39-45.61,1.92-6.94.24-8.89-1.93-8.75-8.79a28.51,28.51,0,0,1,0-3.07c.34-2.42-.94-3.43-3.07-3.79-.14,0-.3,0-.43,0-9.65-2.22-11.51-4.86-10.94-15,.08-1.41-.37-3.78-1.23-4.15-7.32-3.13-7-9.28-5.94-15.27.58-3.34.53-5.43-2.12-8-5.06-4.94-3.6-13.52,3.35-17.06s14.33-5.66,21.62-8.18c2.88-1,6-1.2,9-2.06a7.09,7.09,0,0,0,4.7-9.09c-1.47-4.43-3.05-8.82-4.7-13.59-4.13.83-5-1.85-5.86-5.6a28.09,28.09,0,0,0-4.49-9.38c-2.48-3.6-7.79-3.44-11,0-7.7,8.23-15,16.83-23.11,24.65-6.59,6.39-14,12-21.24,17.66-1.21.94-4.67,1.14-5.25.35-1.81-2.48,1-3.2,2.59-4.38,5-3.75,10.48-7.13,14.89-11.52,11-10.94,21.84-22.06,32.06-33.7,6.65-7.57,10.83-16.58,9.93-27.28-.29-3.49,2.87-3.88,5.55-4.07a7.16,7.16,0,0,0,3.27-.3l-15.1-23.87-1.13.55a29.17,29.17,0,0,0,.64,3.25c4.42,14.37,3,28.7-1.59,42.58-1.46,4.34-5.64,8.05-9.25,11.32-6.16,5.6-12.76,10.72-19.34,15.84a27.8,27.8,0,0,1-20.57,5.77c-6.29-.64-12.59-1.16-19.2-1.76,1.28,3.33,2.78,7.07,4.15,10.86,3.91,10.85,8.76,21.49,8.23,33.39-.07,1.61-1.23,3.16-1.88,4.74-1-1.37-2.51-2.59-3-4.12a183.88,183.88,0,0,0-47.69-76.83c-1-1-2.12-1.92-3.82-3.44-2.24,3.36-4.51,6.2-6.16,9.36-3.1,6-5.74,12.15-8.78,18.13-.66,1.31-2.18,2.19-3.3,3.26-.67-1.29-1.88-2.57-1.93-3.89-.51-15.07,1.39-29.77,7.38-43.77a23,23,0,0,0,1-2.91c.06-.23-.15-.52-.37-1.19-3.26,2.61-6.46,5.06-9.54,7.66-10.21,8.61-22.77,11-35.34,13.18a247.2,247.2,0,0,1-26.08,3.44c-11.64.74-20.19,7.41-28.68,14-6.19,4.83-11.7,10.57-17.23,16.18-5.83,5.92-11.51,12-16.87,18.34a115.58,115.58,0,0,0-10.15,14.3,14.3,14.3,0,0,0-1.63,7.29c0,3.78.86,7.55,1.09,11.34.42,7.05-3,12.58-7.34,17.72-8.34,9.81-16.9,19.46-21.57,31.8-1.93,5.1-3.36,10.16-2.38,16.76,7.17-2.07,14.52-2.76,20.31-6.12,22.14-12.86,41.25-29.76,59.58-47.48,9.68-9.36,18.77-19.33,28.34-28.8,4.43-4.39,10-7.77,14-12.49a67.65,67.65,0,0,0,13.84-26.7c1.61-6.14,1.79-12.71,2.1-19.11.2-4.11-1.79-8.75,3.61-10.95,3.78-1.53,11.62,1.75,14.62,5.11,6.56,7.33,6,16.11,5.63,24.88-.29,6.13-1.25,12.24-1.36,18.36-.15,8.6,3.7,14.42,14.85,13.13,8.87-1,17.81-2.68,26.16,3.53,9.69,7.21,9.9,16.49-.35,23-.5.31-1,.57-1.3.73,4,10.85,3.69,12-4.9,19.73-.79.71-1.56,2.4-1.26,3.25,2.92,8.19-3.07,11.94-7.81,16.42-1.38,1.3-2.24,3.13-3.49,4.59-2.08,2.46-3.83,6-6.52,7-11.6,4.49-23.81,6.43-36.15,4.14-4.75-.88-9.26-3.52-13.61-5.85-2.65-1.41-4.37-1.09-6,1.13q-13.58,18.56-27.09,37.17a4.63,4.63,0,0,0-1,2.77c.67,9.12,1.71,18.22,2.11,27.34.17,4.1-1.23,8.25-1.29,12.39-.09,6.42.75,12.86.49,19.27-.86,21.48-1.68,43-3.25,64.4a80.48,80.48,0,0,1-8.8,32.26c-3,5.62-1.4,14-.86,21,.42,5.31,2.81,10.44,3.69,15.75.76,4.57,1.63,9.54.6,13.89-1.08,4.57-4.3,8.65-6.75,12.85-.21.34-.93.43-1.64.46-1,.05-2,.06-3,.06H169.09q-84.65,0-169.27-.06v-4.4a43.58,43.58,0,0,0,6.27.88q360.5.06,721,0h705.6c7.88,0,13.22-4.75,12.49-12.56-.8-8.5-3.3-16.83-4.32-25.32-.81-6.74-.56-13.62-.62-20.44a7,7,0,0,1,1.26-3.74c6.84-8.67,8.28-19.07,9-29.47,1-15.73,1.85-31.47,2.39-47.23.52-14.94,1.45-29.92,1.42-44.89,0-7.78-.73-15.57-1.18-24.21-5.18,3-6.65,7.52-8.86,11.44-3.57,6.36-6.72,13-10.74,19.08-8.4,12.69-21.42,15.31-35.45,14.93-1.7,0-3.6-1.33-5-2.51-12.29-10.38-20.11-23.2-22.75-39.36-1-6.38-4.35-12.4-7-19.68-4.27,4.5-7.78,7.44-8.3,12.58-.37,3.77-1.48,7.48-1.59,11.24-.46,15.48,5.92,27.84,19.19,35.54,5.71,3.3,13,4.09,19.68,5.46,9.26,1.9,18.52,1.86,27.63-1.38,1-.36,2.9.49,3.68,1.4.6.68.48,2.55,0,3.5a8.22,8.22,0,0,1-3.31,3.4c-8,3.77-15.52,8.93-24.86,9.29a24.72,24.72,0,0,0-7.27,1.54c-11.29,4.05-21.76,1.38-31.49-4.36-7.35-4.35-11.29-11.47-13.42-19.78-4-15.68-2.9-31.38-.49-47,1.63-10.57,5.63-20.2,13.83-27.64a5.49,5.49,0,0,0,1.85-3.63c-.46-16.52,7.74-29.26,17.74-41.24,2.71-3.25,5.66-6.32,8.31-9.63,4.67-5.81,7.33-12.17,5.65-19.93a36.33,36.33,0,0,1-.58-10c.17-2.53.67-5.45,2.1-7.41,10.91-15,21.43-30.29,36.78-41.45,5.36-3.9,10.35-8.28,15.32-12.68,9.2-8.15,20.53-9.57,32-11,8.71-1.07,17.35-2.65,26.05-3.77,12.46-1.6,22.45-7.94,31.67-15.91a27.54,27.54,0,0,1,5.22-4c8.19-4.16,12.55-11.79,17-19.08,5.44-8.85,1.54-17.07-3.15-24.93-2.62-4.39-5.41-8.68-7.86-13.16-5.19-9.48-4.25-19.84-3.94-30.05.11-3.5,1.12-7,1-10.46-.13-2.89-1.28-5.76-2.13-8.6-.57-1.91-1.71-3.7-2.08-5.64-3.24-17.13-.51-33.7,4.78-50.07,3.53-10.93,3.34-10.3,14.93-9.49s23.05.1,34.58,0a4.42,4.42,0,0,0,2.58-1.36c-18.82-1.74-37.44-3.73-53.89-16a102.63,102.63,0,0,1-1.4,10.47c-.56,2.37-1.92,4.56-2.93,6.83-1.78-1.6-3.91-3-5.27-4.86-4.8-6.72-5.33-14.44-4.12-22.28a5.45,5.45,0,0,1,3.41-3.67c15.68-3.16,29.48-10.11,42-19.89a78.27,78.27,0,0,1,33.33-15.06,77.1,77.1,0,0,1,11.13-.93A66.42,66.42,0,0,1,1625.18,12ZM1545,171.26c-.9,10.79,4.2,19.45,9.2,28.35,3.39,6,5.56,12.71,8.35,19.07,1.22,2.76,2.27,5.7,4,8.09,1.94,2.68,4.61,4.82,7,7.21,3.14,3.19,5.77,7.28,9.51,9.42,12.26,7,24.33,2.71,35.54-2.88,11.72-5.83,21.52-14.32,30.16-24.41,11-12.91,16.45-27.61,17.64-44.29.16-2.16,2-4.69,3.83-6.1,2.83-2.2,6.43-3.36,9.45-5.35,9.68-6.37,13-21.62,7.23-31.83-1.55-2.76-3.38-3.31-6.13-2a24.19,24.19,0,0,0-11.33,10.57,80.8,80.8,0,0,1-7.39,11.34c-2,2.58-5.47,3.63-8.28,1.73-1.41-.95-2.08-3.9-2-5.92a51.48,51.48,0,0,0-7.78-28.84,10.94,10.94,0,0,1-1.66-9c2.5-10.64.5-20.25-6.83-28.65-2.69-3.08-5.17-4.17-9.47-2.6a157.44,157.44,0,0,1-64.34,9c-4.05-.26-9.15-2.33-11.83-.59s-3.08,7.18-4.33,11a94.18,94.18,0,0,0-3.75,42.46c.14,1,.43,2.3,1.12,2.75,4.56,3,3.8,7.54,3.58,11.84C1546.11,158.15,1545.52,164.7,1545,171.26Zm-24.17,136.13c-.09-9.61,1.56-17.49-4.6-23.33-2.14-2-5.46-2.79-8.24-4.14-.28,2.15-.59,4.3-.82,6.45-.11,1,0,2.05-.1,3.07-.7,10.59-2.54,20.94-7.71,30.34-4.64,8.42-9.45,16.74-17.19,23a167.36,167.36,0,0,0-17.57,15.74c-25,26.74-52.89,50-83,70.71-3.45,2.37-5.39,5.16-5.83,9.2-.25,2.33-.93,4.64-.91,7,0,5.36-1.32,11.59.91,15.92,7.75,15.06,20.08,25.68,36.22,31.42a7,7,0,0,0,5.25-.58c14.22-8.41,23.57-21.46,31.38-35.35a286.5,286.5,0,0,1,31.16-45.44c5.59-6.57,5.66-6.5,12.74-2.16.12.08.27.13.39.2,14.52,9,29.48,6.52,44.32,1.23,2-.72,3.8-3.85,4.44-6.21s1.22-4,3.86-5.08c6.08-2.41,8-7.1,6.5-13.37-.34-1.47.54-3.61,1.55-4.89s3.11-2.14,4.62-3.3c3.79-2.92,4.16-6.5,1.14-10.23-3.76-4.66-3.34-5.49,1.83-8.42,2.58-1.47,6.34-4.38,6.16-6.33-.26-2.87-3.15-6-5.66-8.07-6.45-5.39-14.15-3.67-21.45-2.5-13.14,2.09-21.85-6-21-18.73C1519.62,317.36,1520.46,311.27,1520.86,307.39Zm181.93,26.76c4,4.9,4.29,9.57,2.69,14.12-1.1,3.1-.35,4.42,2.36,5.84,6,3.16,6.86,5.31,5.55,12.05a5.32,5.32,0,0,0,2.78,6.25c6.55,3.93,8.1,9.34,4.76,16.32-1.66,3.48-1.77,6.19,1.3,9.39,7.44,7.77,15,15.6,21.37,24.21C1757,440.32,1769,459,1775,481.21c4.17,15.6,13.14,28.6,28.58,35.42,10.08,4.45,21.21,7.14,30.76-5.45a34.06,34.06,0,0,0,6.47-15.73c1.15-8,2-16,2.36-24.05.6-13.88-2.81-26.74-12.39-37.24-3-3.27-7.22-5.4-10.63-8.34a106.7,106.7,0,0,0-22.5-15.06,72.17,72.17,0,0,1-17-12c-8.42-7.88-16-16.69-24.14-24.84-2.53-2.52-5.81-4.35-8.93-6.19-12.83-7.6-24.44-16.16-27.37-32.2-.2-1.11-1.72-2.84-2.56-2.81C1713,332.89,1708.39,333.54,1702.79,334.15ZM1534.67,67.61c.2-2.25.27-4.53.63-6.77,1-6.21,3.91-7.84,8.4-3.64,5.69,5.3,12.58,7.11,19.48,9.48,13.4,4.58,27.2,5.47,41.15,4.67,6.92-.4,13.9-1.81,19.3-6.45,8.06-6.93,15.72-14.32,23.38-21.71,2-1.95,3.75-5,6.69-3,1.36.95,1.16,4.24,1.47,6.5a8.77,8.77,0,0,1-.59,2.55c-2.4,12.22-4.12,24.44-2.75,37,1.87,17.15,12.05,29.36,28.07,33.06,3.18.74,4.42,0,5-3.26,2.25-11.82,4-23.64,2.4-35.72-2.18-16.5-8.95-30.48-22.36-40.8-5.4-4.15-11.31-7.69-16.42-12.16-10.78-9.44-23.48-12.63-37.13-11a70,70,0,0,0-35.64,15,108.35,108.35,0,0,1-41.85,20.48c-1.16.28-2.82,1.51-3,2.48C1530.31,59,1530.89,63.53,1534.67,67.61Zm307.8,367.66c0-1.66.19-2.28,0-2.7-3.44-6.7-6.55-13.48-9.34-20.54-2.57-6.51-8.82-11.83-14.15-16.93-4.53-4.33-7-8.87-7.4-15.2-.69-9.95-1.53-19.91-9.22-27.88a96.58,96.58,0,0,1-14-17.92,30,30,0,0,0-16-13.44c-4.56-1.77-9.72-3.54-12.94-6.9-8.57-8.95-21.21-10.36-30.51-17.7-.63-.5-1.7-.41-2.51-.73-3.26-1.24-6.48-2.55-9.73-3.81s-6.28-2.4-9.43-3.6c.5,3.64.26,7.6,1.65,10.87,2.54,6,6.37,11.46,9.05,17.42A88.52,88.52,0,0,0,1730.85,337c9.76,11.62,19,23.83,31.48,32.88a44.88,44.88,0,0,1,8.57,7.94c13.34,16.42,30.47,28.25,48.37,38.73a89.17,89.17,0,0,1,19.46,15.3C1839.68,432.84,1840.74,433.7,1842.47,435.27ZM1570.64,239.54c-.51.73-.76.94-.82,1.2a14.45,14.45,0,0,0-.18,1.74c-1.59,22.55,4.85,41.93,21.74,57.68,10.32,9.62,29.27,12,40.89,3.93,6.34-4.43,12-9.8,18.25-14.39,8.36-6.15,11.93-14.54,12.36-24.54.24-5.56.47-11.13.35-16.68a28.23,28.23,0,0,0-1.46-7.62c-2.31-7.45-4.46-14.88-2.65-22.81a17.94,17.94,0,0,0,0-3.88l-1.14-.45c-2.22,2.34-4.61,4.53-6.65,7-12.55,15.25-27.87,26.3-47.45,30.35-11.93,2.47-23.12,1.13-31.12-9.72A13.58,13.58,0,0,0,1570.64,239.54ZM1728,412.13l.44-1.13c-1.71-1.84-3.44-3.65-5.13-5.51-7.9-8.69-9.89-7.68-5.5-20,1.38-3.86,0-6.83-3.42-8.93-5.1-3.16-6.55-5.69-5.23-11.16.94-3.85-.67-5.79-3.73-7.32-6.21-3.11-6.53-4.38-4.58-11,.62-2.11.63-5.35-.59-6.83-2.14-2.6-5.44-4.24-7.53-5.76-6.25,1.89-12.42,3.76-18.59,5.6a22.2,22.2,0,0,0-3.39.89c-5.51,2.63-11.3,4.86-16.34,8.21-4,2.63-3.56,8.11.43,9.76,5.06,2.09,4.91,4.79,2.8,8.86a9.94,9.94,0,0,0-1.2,5.9c.38,2,1.65,4.95,3.23,5.5,4.34,1.51,4.82,4.34,4.67,8.18-.38,9.28,0,9.66,8.78,12.13,6.29,1.76,6.29,1.76,5.16,8.34-.85,4.91.67,6.79,5.73,6.66,9.07-.24,18.13-.56,27.18-1C1716.82,413.25,1722.42,412.6,1728,412.13Zm-380.11,47a13,13,0,0,0-.68,2.31c-2.22,13.64-2.62,27.14.25,40.91,3,14.42,17.22,26.25,31.93,24.23,8.23-1.14,16.32-3.37,24.4-5.42,2.31-.58,4.34-2.24,6.21-3.25-9.54-1.27-18.71-2.77-27.93-3.67-19.31-1.88-34.42-22.4-34.19-39.34C1348,469.44,1347.91,464,1347.91,459.13ZM1865.78,468l-1,.17c-.14.82-.36,1.64-.43,2.47-.69,8.24-1.25,16.5-2.11,24.72a18.24,18.24,0,0,1-2.16,6.18c-2.65,5.18-5.58,10.21-8.25,15.38-4.82,9.29-11.32,16.25-22.55,17.14a49.26,49.26,0,0,0-6.38,1.34c0,.55-.09,1.1-.13,1.66,4.34,1.33,8.61,3.1,13,3.89,9,1.59,18-.8,23-7.74,5.43-7.52,11.38-15.57,11.57-26,.21-11.66,1.94-23.36-2.2-34.71A31.8,31.8,0,0,0,1865.78,468ZM1572,288.44l1-.62c-2.71-8.93-6.35-17.71-7.88-26.84s-1-18.86-1.44-28.78c-11.53,6.79-28.41,42.85-24.78,52.75,1.11-1.26,2-2.22,2.88-3.28,2.53-3.2,5-6.41,7.5-9.68,1.56-2.07,3.3-2.37,5.16-.6,4,3.82,7.92,7.74,11.88,11.6C1568.24,284.82,1570.13,286.62,1572,288.44Zm130.28,2.32c-7.21,2.71-14.15,11.94-13,18.24s3.59,12.23,5.91,18.15c.51,1.3,2.91,2.65,4.42,2.62a104.86,104.86,0,0,0,13.9-1.38c5.6-.86,5.79-1.47,3.19-6.32C1711.32,312,1703.08,303.31,1702.3,290.76ZM1656.77,146l1.28.34,16.19-23.73c-13.51-4.47-22.17-14.16-25.89-29.52-.59,5.85-1.18,10.3-1.41,14.78a10.73,10.73,0,0,0,1.25,5,57.71,57.71,0,0,1,7.84,24.73Q1656.41,141.86,1656.77,146ZM1429.34,490.13l-1.12-.95c-2.69,1.87-5.45,3.66-8.08,5.62a10.61,10.61,0,0,1-11.4,1.45c-10.17-4.17-19.25-9.77-26.74-17.85-1-1.11-2.18-2.11-3.77-3.62.62,5.85,6.43,14.74,10.93,20.87,7.1,9.64,15.68,10.38,25.79,6.38.27-.11.57-.15.84-.27C1421.42,499.14,1426.65,496.05,1429.34,490.13Zm255.09-181.21c.57-3.51,1.38-6,1.31-8.38-.29-9.48-.62-19-1.44-28.41-.32-3.81-3-6.66-6.4-8.86-1.07,4.91-1.63,9.36-3.07,13.52s-3.82,8.28-5.79,12.43C1676.46,291.47,1677.1,289,1684.43,308.92Zm-37.86-223c.66-10.67,1.44-23.41,2.22-36.06L1626.07,70c6.4-1.94,6.75-2.23,11.34,3C1641.36,77.53,1644.42,82.84,1646.57,85.92ZM1690.39,294c4.11-3.47,7.86-6,10.69-9.31,1.16-1.37,1.25-5.81.28-6.43-3.13-2-6.94-3-10.58-4-.43-.13-2.07,1.63-2,2.45C1689.09,282,1689.72,287.32,1690.39,294ZM1349.64,452.7c7.72-7.49,11-13.74,9-17.3C1354.55,440.48,1350.27,445.09,1349.64,452.7Z" transform="translate(0.18 -11.45)"/></svg>